<svg id="Prime_Dusk" data-name="Prime Dusk" xmlns="http://www.w3.org/2000/svg" width="2500" height="2500" viewBox="0 0 2500 2500">
  <defs>
    <style>
      .cls-1, .cls-3 {
        fill: #fff;
      }

      .cls-2 {
        fill: #395175;
      }

      .cls-3, .cls-4 {
        fill-rule: evenodd;
      }

      .cls-4 {
        fill: #fafbfd;
      }
    </style>
  </defs>
  <circle id="Outline" class="cls-1" cx="1249.999" cy="1249.999" r="1249.811"/>
  <circle id="Circle" class="cls-2" cx="1250.001" cy="1250.001" r="1170.969"/>
  <g id="triangle">
    <path id="AA" class="cls-3" d="M1200.37,929.85v766.26h-74.94V1424.45H1007.4v271.66H932.464V1424.45H872.513v-74.94h59.951V929.85C932.464,758.675,1200.37,758.259,1200.37,929.85Zm-74.5,419.65V928.21c-0.44-75.781-118.22-75.537-118.22,0v421.25Zm445.46-419.65v766.26h-74.94V1424.45H1378.36v271.66h-74.94V1424.45h-59.96v-74.94h59.96V929.85C1303.42,758.675,1571.33,758.259,1571.33,929.85Zm-74.5,419.65V928.21c-0.44-75.781-118.23-75.537-118.23,0v421.25Z"/>
    <path id="Triangle_1_copy" data-name="Triangle 1 copy" class="cls-3" d="M1247.82,35.611L2305.4,1855.49H190.245Zm0,154.188,923.35,1588.4H324.476Z"/>
    <path id="UNITY" class="cls-4" d="M503.7,1165.31a26.458,26.458,0,0,1-10.967,5.07,30.8,30.8,0,0,1-12.629-.17,46.969,46.969,0,0,1-13.8-5.52l-79.852-46.16-18.472,31.95,79.945,46.22a71.462,71.462,0,0,0,25.139,9.1,58.331,58.331,0,0,0,24.655-1.38,61.688,61.688,0,0,0,22.439-11.88,87.074,87.074,0,0,0,28.582-49.45,61.515,61.515,0,0,0-.906-25.37,58.881,58.881,0,0,0-11.074-22.1,70.748,70.748,0,0,0-20.412-17.29L436.4,1032.12l-18.472,31.95,79.945,46.22a46.71,46.71,0,0,1,11.672,9.2,30.342,30.342,0,0,1,6.407,10.83,26.843,26.843,0,0,1,1.03,12.01A37.814,37.814,0,0,1,503.7,1165.31Zm-37.352-185-9.728,16.828L591.59,1075.16l16.286-28.18-72.349-41.82q-2.963-1.71-6.455-3.48-3.49-1.755-7.174-3.514L639.851,979.7a15.314,15.314,0,0,0,6.918-2.56,18.026,18.026,0,0,0,4.719-5.6l9.618-16.639-134.97-78.022-16.287,28.174,71.423,41.286q3.243,1.875,7.011,3.8t7.877,3.8L477.285,972.5a28.617,28.617,0,0,0-3.867.917,9.911,9.911,0,0,0-2.693,1.345,10.526,10.526,0,0,0-2.171,2.151,32.106,32.106,0,0,0-2.207,3.391h0ZM567.67,805.026L549.089,837.17,684.06,915.192l18.581-32.145Zm17.489-30.254,24.826,14.352,22.407-38.763,110.145,63.67,18.472-31.955-110.145-63.67,22.407-38.762-24.826-14.352ZM732.826,519.319l-16.395,28.362a12.232,12.232,0,0,0-1.5,3.988,12.747,12.747,0,0,0-.119,3.842,15.794,15.794,0,0,0,.865,3.527,13.357,13.357,0,0,0,1.507,2.952l28.129,41.992q3.321,4.947,6.156,9.234a83.153,83.153,0,0,0,6,8.009q-4.766-.735-9.9-1.054t-11.222-.684l-50.536-3.229a16.4,16.4,0,0,0-7.159,1.159,12.189,12.189,0,0,0-5.724,5.52l-16.286,28.174,112.506-1.563,51.32,29.666,18.472-31.956-51.32-29.666Z"/>
    <path id="SERVICE" class="cls-4" d="M1761.23,550.4a52.187,52.187,0,0,0,1.25-11.627,70.656,70.656,0,0,0-1.15-12.464,73.056,73.056,0,0,0-3.56-12.8,85.413,85.413,0,0,0-5.99-12.631,61.937,61.937,0,0,0-14.74-17.754,50.883,50.883,0,0,0-17.39-9.321,44.088,44.088,0,0,0-18.03-1.558,43.51,43.51,0,0,0-16.56,5.482q-9.435,5.44-14.37,11.738a37.48,37.48,0,0,0-6.81,12.986,40.215,40.215,0,0,0-1.42,13.574,94.627,94.627,0,0,0,1.91,13.568q1.455,6.681,3.07,12.9a73.765,73.765,0,0,1,2.1,11.547,23.108,23.108,0,0,1-.99,9.626,12.989,12.989,0,0,1-6.18,7.017q-8.145,4.7-14.61,2.137t-11.37-11.066a35.493,35.493,0,0,1-4.54-11.928,60.488,60.488,0,0,1-.83-10.427c0.05-3.192.11-6.066,0.2-8.622a12.1,12.1,0,0,0-1.47-6.61,9.379,9.379,0,0,0-3.31-3.39,8.669,8.669,0,0,0-4.34-1.321l-19.94-.821a55.587,55.587,0,0,0-1.83,13.5,83.59,83.59,0,0,0,1.02,14.7,87.708,87.708,0,0,0,3.62,14.733,76.166,76.166,0,0,0,6.1,13.557,65.516,65.516,0,0,0,15.28,18.488,50.281,50.281,0,0,0,18.28,9.675,47.245,47.245,0,0,0,19.61,1.2,54.119,54.119,0,0,0,19.35-6.844,41.691,41.691,0,0,0,12.89-10.884,36.77,36.77,0,0,0,6.2-12.64,42.517,42.517,0,0,0,1.3-13.566,114.388,114.388,0,0,0-1.7-13.748q-1.275-6.789-2.77-13.133A83.758,83.758,0,0,1,1697.53,522a25.684,25.684,0,0,1,.7-9.466,10.741,10.741,0,0,1,5.26-6.484q6.375-3.681,12.61-1.54t11.29,10.928a32.714,32.714,0,0,1,3.89,9.838,53.509,53.509,0,0,1,1.07,8.81q0.12,4.057.2,7.283a10.99,10.99,0,0,0,1.3,5.352,7.522,7.522,0,0,0,3.37,3.291,13.586,13.586,0,0,0,5.01.994Zm22.89,9.974-134.77,77.719,50.04,86.762,24.05-13.869-31.9-55.313,32.09-18.509,24.43,42.363,23.13-13.336-24.43-42.363,31.45-18.136L1810.11,661l24.04-13.869Zm-2.02,192.707a13.432,13.432,0,0,1,2.12,6.236,10.9,10.9,0,0,1-1.7,5.6l-26.22,44.947q-3.945,6.835.59,14.7l16.32,28.3,30.36-55.718a26.846,26.846,0,0,0,2.9-8.017,34.09,34.09,0,0,0,.49-8.114,52.175,52.175,0,0,0,13.08,7.928,46.723,46.723,0,0,0,13.74,3.415,43.321,43.321,0,0,0,13.79-.988,49.378,49.378,0,0,0,13.41-5.39,48.474,48.474,0,0,0,14.2-12.135,36.622,36.622,0,0,0,7.21-16.789q1.6-9.613-1.34-21.661t-11.37-26.662l-25.28-43.843L1709.63,742.61l18.03,31.264,49.85-28.752Zm56.92-43.427,7.26,12.58q6.99,12.115,5.33,20.778t-10.55,13.783a29.691,29.691,0,0,1-9.02,3.479,19.774,19.774,0,0,1-9.11-.295,22.651,22.651,0,0,1-8.72-4.767,36.952,36.952,0,0,1-7.89-9.935l-7.25-12.579ZM1799.99,899.3l16.32,28.3,165.92-23.7-14.61-25.344a12.37,12.37,0,0,0-12.62-6.28l-87.09,15.707q-5.67,1.056-12.21,2.545t-13.39,3.715q5.2-5.094,9.71-10.1t8.21-9.482l57.11-67.691a11.691,11.691,0,0,0,2.76-6.526,12.862,12.862,0,0,0-1.99-7.727l-14.5-25.159Zm208.38,49.927-18.14-31.449-134.77,77.718,18.14,31.446Zm-35.42,170.8a12.5,12.5,0,0,0-2.92-1.53,43.919,43.919,0,0,1-7.19-3.18,34.85,34.85,0,0,1-5.95-4.22,37.242,37.242,0,0,1-5.19-5.69,78.871,78.871,0,0,1-4.9-7.53,39.2,39.2,0,0,1-5.13-15.53,37.47,37.47,0,0,1,1.84-16.16,46.694,46.694,0,0,1,9.12-15.49,64.02,64.02,0,0,1,16.78-13.43,61.33,61.33,0,0,1,19.48-7.48,45.964,45.964,0,0,1,18.08.05,39.391,39.391,0,0,1,15.57,7.11,45.214,45.214,0,0,1,11.96,13.8,50.686,50.686,0,0,1,4.2,8.99,45,45,0,0,1,1.87,7.42,32.172,32.172,0,0,1,.41,6.05c-0.07,1.81-.14,3.47-0.2,4.99a38.624,38.624,0,0,0,.01,4.18,7.933,7.933,0,0,0,1.07,3.57,7.248,7.248,0,0,0,3.3,3.28,15.8,15.8,0,0,0,3.75,1.04l20.23,2.38a60.176,60.176,0,0,0,2.25-12.88,68.2,68.2,0,0,0-.55-13.98,80.407,80.407,0,0,0-3.52-14.67,84.521,84.521,0,0,0-6.9-15.06,89.73,89.73,0,0,0-21.57-25.65,75.431,75.431,0,0,0-27.08-14.031,74.577,74.577,0,0,0-30.13-1.914,83.476,83.476,0,0,0-30.69,10.795,93.151,93.151,0,0,0-24.81,20.35,73.323,73.323,0,0,0-14.33,25.58,68.669,68.669,0,0,0-2.54,28.95q1.785,15.18,10.65,30.53,9.645,16.74,22.13,25.88a59.437,59.437,0,0,0,27.81,11.14l5.89-19.91a6.939,6.939,0,0,0,.21-2.96A7.114,7.114,0,0,0,1972.95,1120.03Zm119.91-24.29-134.77,77.72,50.04,86.76,24.05-13.87-31.9-55.31,32.1-18.51,24.43,42.36,23.12-13.33-24.43-42.37,31.45-18.13,31.9,55.31,24.05-13.87Z"/>
    <path id="RECOVERY" class="cls-4" d="M720.348,1997.82a13.375,13.375,0,0,1,6.473,1.29,10.851,10.851,0,0,1,4.013,4.28l25.894,45.26q3.957,6.84,13.054,6.84h32.742l-33.17-54.24a26.7,26.7,0,0,0-5.511-6.53,34.545,34.545,0,0,0-6.794-4.5,52,52,0,0,0,13.428-7.38,46.593,46.593,0,0,0,9.844-10.22,43.375,43.375,0,0,0,6.046-12.46,49.469,49.469,0,0,0,2.033-14.34,48.551,48.551,0,0,0-3.424-18.4,36.586,36.586,0,0,0-10.968-14.66q-7.543-6.21-19.474-9.69T725.7,1899.6H674.98v155.89h36.166v-57.67h9.2Zm-9.2-71.15H725.7q14.016,0,20.7,5.77,6.686,5.79,6.688,16.05a29.786,29.786,0,0,1-1.5,9.58,19.8,19.8,0,0,1-4.815,7.76,22.77,22.77,0,0,1-8.507,5.19,37.174,37.174,0,0,1-12.572,1.87H711.146v-46.22ZM822.64,1899.6v155.89H923.006v-27.82H859.02v-37.12h49.006V1963.8H859.02v-36.38h63.986V1899.6H822.64Zm227.91,116.25a12.477,12.477,0,0,0-2.78,1.77,45,45,0,0,1-6.37,4.65,34.585,34.585,0,0,1-6.63,3.05,36.773,36.773,0,0,1-7.55,1.66,76.929,76.929,0,0,1-8.98.48,39.028,39.028,0,0,1-16.05-3.32,37.687,37.687,0,0,1-13.112-9.68,46.687,46.687,0,0,1-8.881-15.68,64.115,64.115,0,0,1-3.263-21.29,61.488,61.488,0,0,1,3.263-20.65,46.222,46.222,0,0,1,9.1-15.68,39.471,39.471,0,0,1,13.968-9.95,45.376,45.376,0,0,1,17.97-3.47,50.515,50.515,0,0,1,9.9.85,44.819,44.819,0,0,1,7.38,2.09,32.7,32.7,0,0,1,5.46,2.67q2.295,1.455,4.23,2.68a39.789,39.789,0,0,0,3.63,2.09,8.046,8.046,0,0,0,3.64.85,7.253,7.253,0,0,0,4.5-1.23,15.647,15.647,0,0,0,2.78-2.73l12.2-16.37a60.325,60.325,0,0,0-10.06-8.4,68.519,68.519,0,0,0-12.41-6.53,82.223,82.223,0,0,0-14.5-4.28,84.668,84.668,0,0,0-16.53-1.55,89.758,89.758,0,0,0-33.067,5.89,73.872,73.872,0,0,0-42.479,41.67,83.672,83.672,0,0,0-5.992,32.05,93.239,93.239,0,0,0,5.243,31.73,73.564,73.564,0,0,0,15.033,25.25,68.844,68.844,0,0,0,23.861,16.69q14.069,6.045,31.831,6.05,19.365,0,33.55-6.26a59.558,59.558,0,0,0,23.59-18.57l-14.34-15.08a6.824,6.824,0,0,0-2.46-1.66A7.223,7.223,0,0,0,1050.55,2015.85Zm192.33-69.71a75.26,75.26,0,0,0-16.42-25.25,76.394,76.394,0,0,0-25.52-16.85,85.966,85.966,0,0,0-33.12-6.16,87.305,87.305,0,0,0-33.17,6.1,76.16,76.16,0,0,0-25.62,16.8,74.754,74.754,0,0,0-16.48,25.25,87.8,87.8,0,0,0,0,62.92,74.493,74.493,0,0,0,42.1,42.16,93.1,93.1,0,0,0,66.29,0,74.374,74.374,0,0,0,41.94-42.16A87.5,87.5,0,0,0,1242.88,1946.14Zm-34.18,52.27a44.075,44.075,0,0,1-8.62,15.68,36.627,36.627,0,0,1-13.75,9.79,48.1,48.1,0,0,1-18.51,3.37,48.825,48.825,0,0,1-18.67-3.37,36.492,36.492,0,0,1-13.8-9.79,44.075,44.075,0,0,1-8.62-15.68,74.3,74.3,0,0,1,0-41.73,44.075,44.075,0,0,1,8.62-15.68,36.939,36.939,0,0,1,13.8-9.84,48.07,48.07,0,0,1,18.67-3.42,47.357,47.357,0,0,1,18.51,3.42,37.08,37.08,0,0,1,13.75,9.84,44.075,44.075,0,0,1,8.62,15.68A74.3,74.3,0,0,1,1208.7,1998.41Zm105.93,57.08h32.74l62.49-155.89h-29.32a12.36,12.36,0,0,0-11.77,7.81l-29.96,83.46q-1.935,5.445-3.91,11.87t-3.48,13.49q-1.815-7.065-3.9-13.49t-4.12-11.87l-30.17-83.46a11.732,11.732,0,0,0-4.28-5.67,12.943,12.943,0,0,0-7.71-2.14h-29.1Zm113.42-155.89v155.89h100.36v-27.82h-63.98v-37.12h49V1963.8h-49v-36.38h63.98V1899.6H1428.05Zm171.62,98.22a13.4,13.4,0,0,1,6.48,1.29,10.853,10.853,0,0,1,4.01,4.28l25.89,45.26q3.96,6.84,13.06,6.84h32.74l-33.17-54.24a26.765,26.765,0,0,0-5.51-6.53,34.557,34.557,0,0,0-6.8-4.5,51.927,51.927,0,0,0,13.43-7.38,46.668,46.668,0,0,0,9.85-10.22,43.333,43.333,0,0,0,6.04-12.46,49.266,49.266,0,0,0,2.04-14.34,48.592,48.592,0,0,0-3.43-18.4,36.545,36.545,0,0,0-10.97-14.66q-7.53-6.21-19.47-9.69-11.925-3.465-28.84-3.47h-50.71v155.89h36.16v-57.67h9.2Zm-9.2-71.15h14.55q14.025,0,20.71,5.77,6.69,5.79,6.69,16.05a29.732,29.732,0,0,1-1.5,9.58,19.807,19.807,0,0,1-4.82,7.76,22.716,22.716,0,0,1-8.5,5.19,37.186,37.186,0,0,1-12.58,1.87h-14.55v-46.22Zm245.67-27.07h-32.1a11.874,11.874,0,0,0-4.12.69,12.573,12.573,0,0,0-3.31,1.82,15.674,15.674,0,0,0-2.57,2.51,13.5,13.5,0,0,0-1.77,2.79l-21.82,45.36q-2.58,5.355-4.82,9.96a82.84,82.84,0,0,0-3.85,9.2q-1.71-4.5-3.96-9.1t-4.92-10.06l-22.04-45.36a16.3,16.3,0,0,0-4.5-5.62,11.773,11.773,0,0,0-7.49-2.19h-31.88l56.49,96.62v59.27h36.17v-59.27Z"/>
  </g>
</svg>
